<svg width="411" height="411" viewBox="0 0 411 411" fill="none" xmlns="http://www.w3.org/2000/svg">
<path opacity="0.02" d="M68.5 0H0V68.5C37.9033 68.5 68.5 37.9033 68.5 0ZM251.167 0H205.5C205.5 113.482 113.482 205.5 0 205.5V251.167C138.827 251.167 251.167 138.598 251.167 0ZM159.833 0H114.167C114.167 63.02 63.02 114.167 0 114.167V159.833C88.365 159.833 159.833 88.365 159.833 0ZM159.833 411H205.5C205.5 297.518 297.518 205.5 411 205.5V159.833C272.402 159.833 159.833 272.402 159.833 411ZM342.5 411H411V342.5C373.097 342.5 342.5 373.097 342.5 411ZM251.167 411H296.833C296.833 347.98 347.98 296.833 411 296.833V251.167C322.635 251.167 251.167 322.635 251.167 411Z" fill="white"/>
</svg>
